<?xml version="1.0" encoding="iso-8859-1"?>
<!-- Uploaded to: SVG Repo, www.svgrepo.com, Generator: SVG Repo Mixer Tools -->
<!DOCTYPE svg PUBLIC "-//W3C//DTD SVG 1.1//EN" "http://www.w3.org/Graphics/SVG/1.1/DTD/svg11.dtd">
<svg fill="#000000" version="1.1" id="Capa_1" xmlns="http://www.w3.org/2000/svg" xmlns:xlink="http://www.w3.org/1999/xlink"
	 width="800px" height="800px" viewBox="0 0 193.294 193.294"
	 xml:space="preserve">
<g>
	<g>
		<path d="M153.676,103.225c-0.333-0.424-0.819-0.717-1.481-0.672c-2.633,0.176-4.713,0.75-6.349,1.621
			c-0.552-1.043-1.277-2.004-2.052-2.939c-0.365-0.686-0.779-1.307-1.313-1.748c16.008-12.135,22.837-34.991,19.217-54.223
			c-5.021-26.676-40.254-47.311-65.303-34.321c-10.615,0.8-17.936,9.717-22.976,19.142c-7.192,13.45-9,28.728-4.467,43.31
			c8.458,27.208,41.182,43.131,67.021,30.187c0.577-0.289,1.111-0.636,1.671-0.948c0.387,0.518,0.812,1.002,1.272,1.453
			c1.032,1.282,2.122,2.52,3.248,3.645c-4.375,7.854,2.754,22.529,7.173,29.746c5.313,8.676,11.979,16.76,19.445,23.658
			c4.67,4.314,10.841,9.295,17.661,8.135C207.152,165.75,176.434,107.1,153.676,103.225z M136.832,95.762
			C116.188,110.5,88.393,97.94,77.356,77.466c-6.262-11.619-5.792-25.047-1.641-37.19c3.166-9.264,9.931-21.225,19.941-24.536
			c0.885,0.943,2.275,1.416,3.742,0.647c12.963-6.792,29.845-0.967,41.174,6.748c8.104,5.518,13.005,14.412,15.108,23.79
			C159.667,64.714,151.564,85.244,136.832,95.762z M154.928,135.625c1.261,1.603,2.559,3.173,3.886,4.72
			c-0.138,0.08-0.271,0.17-0.395,0.268c-0.42-0.58-0.86-1.149-1.271-1.733C156.539,138.012,155.771,136.906,154.928,135.625z
			 M186.903,162.68c0.024-0.552-0.113-1.125-0.449-1.672c0.208-0.391,0.409-0.806,0.599-1.264c0.244-0.598,0.431-1.202,0.59-1.811
			C187.875,160.076,187.658,161.721,186.903,162.68z"/>
		<path d="M130.519,44.287c-4.14-5.061-10.23-6.332-15.987-5.141c-3.262-0.838-5.995-0.404-8.229,0.874
			c-0.085-0.441-0.317-0.881-0.747-1.279c-3.643-3.365-6.851-7.287-10.809-10.286c-1.938-1.468-4.761,0.953-4.036,3.103
			c0.517,1.534,1.431,2.405,2.722,3.069c0.267,0.251,0.54,0.493,0.806,0.746c1.235,1.424,2.679,2.669,4.154,3.877
			c1.118,1.011,2.267,1.98,3.462,2.887c0.053,0.048,0.11,0.094,0.164,0.142c0.063,0.058,0.132,0.097,0.199,0.147
			c0.104,0.078,0.2,0.168,0.307,0.244c0.004-0.009,0.007-0.017,0.011-0.026c0.171,0.095,0.344,0.163,0.52,0.212
			c-1.928,2.385-3.228,5.567-3.928,8.941c-0.786,2.101-1.142,4.299-1.116,6.5c-1.149-0.317-2.378-0.461-3.476-0.606
			c-3.599-0.475-7.253-0.324-10.855-0.799c-1.31-0.172-2.214,0.613-2.637,1.66c-2.38,0.556-2.195,3.928,0.403,4.235
			c0.944,0.074,1.886,0.131,2.829,0.189c4.381,0.734,8.734,1.31,13.193,1.336c0.389,0.088,0.777,0.17,1.169,0.276
			c0.197,0.054,0.384,0.057,0.571,0.067c0.198,0.523,0.41,1.042,0.656,1.553c1.571,4.384,4.553,8.38,8.927,10.073
			c7.247,2.805,15.702-1.323,20.742-6.544C136.204,62.825,136.484,51.582,130.519,44.287z M107.523,67.27
			c0.312,0.169,0.625,0.339,0.948,0.469c1.143,0.461,2.27,0.664,3.372,0.674c0.428,0.132,0.866,0.222,1.311,0.279
			C111.114,68.908,109.146,68.434,107.523,67.27z"/>
		<path d="M107.111,135.67c-1.823-0.672-3.753-0.924-5.703-0.838c-8.898-3.682-16.854,3.861-20,12.33
			c-1.246,3.354-1.907,6.796-1.888,10.111c-4.399,0.205-8.718,0.334-13.121,0.748c-8.239,0.777-16.529,1.308-24.73,2.42
			c-1.304-7.729-7.64-13.557-15.147-14.731c-0.937-0.425-1.874-0.746-2.809-0.989c-0.997-9.898-1.353-19.498-0.816-29.611
			c0.381-7.18,1.013-14.377,2.034-21.497c0.049-0.341,0.134-0.723,0.221-1.108c0.859,0,1.714-0.027,2.546-0.1
			c4.199-0.372,8.736-1.981,10.718-6.001c0.796-1.615,1.036-3.315,0.926-5.008c3.089-0.19,6.175-0.532,9.194-0.945
			c3.047-0.417,9.065-0.392,9.899-4.299c0.355-1.664-1.114-3.59-2.952-2.952c1.294-0.449-2.149,0.292-2.793,0.479
			c-2.222,0.645-4.53,1.017-6.802,1.434c-2.604,0.479-5.226,0.871-7.855,1.206c-0.113-0.259-0.22-0.521-0.342-0.774
			c-1.445-2.991-3.856-5.673-6.731-7.481c4.137-7.524,9.234-14.476,13.55-21.896c3.005-5.167,6.181-10.235,9.31-15.329
			c4.725,2.098,11.041-0.385,14.094-4.264c0.195-0.247,0.342-0.513,0.512-0.77c1.623-1.212,2.954-2.744,3.634-4.65
			c1.703-4.771-1.441-9.543-5.756-11.343c-2.376-1.986-5.593-2.816-8.707-1.848c-1.924,0.598-3.716,1.862-5.275,3.44
			c-1.293,0.983-2.288,2.331-2.979,3.877c-0.815,1.368-1.475,2.779-1.888,4.13c-1.108,3.622,0.07,6.052,2.245,7.585
			c-4.047,6.219-7.947,12.515-11.62,19.046c-3.74,6.649-8.762,12.919-11.496,20.106c-2.677-0.7-5.51-0.609-8.213,0.634
			c-4.425,2.034-7.154,7.667-7.556,12.257c-0.157,1.781,0.237,3.441,1.008,4.915c0.404,1.505,1.085,2.928,2.051,4.136
			c1.473,1.842,3.431,2.959,5.572,3.622c-1.093,7.083-1.638,14.257-1.984,21.408c-0.388,8.01-0.422,16.041,0.232,24.036
			c0.161,1.971,0.269,4.643,0.804,7.09C5.499,145.21-4.812,161.916,2.349,175.58c4.11,7.843,13.969,12.142,22.445,10.364
			c7.517-1.574,12.883-8.324,15.617-15.065c0.748-1.844,1.174-3.647,1.375-5.401c12.759-1.315,25.664-1.854,38.424-2.09
			c0.056,0,0.125-0.002,0.208-0.008c1.44,4.783,4.673,8.915,10.087,11.549c10.044,4.883,21.527-0.705,27.135-9.443
			C124.653,154.559,118.785,139.975,107.111,135.67z"/>
	</g>
</g>
</svg>
